<svg xmlns="http://www.w3.org/2000/svg" viewBox="0 0 512 512" role="img" aria-label="Ef">
  <title>Ef</title>
  <rect width="512" height="512" rx="112.64" ry="112.64" fill="#FFFFFF"/>
  <g transform="translate(73.597 340.878) scale(1.882)">
  <path fill="#14110E" d="M92.400 0L8.600 0Q8.200 0 8.200-1.200Q8.200-2.400 8.600-2.400Q16-2.400 19.600-3.400Q23.200-4.400 24.500-7.400Q25.800-10.400 25.800-16.200L25.800-108.800Q25.800-114.600 24.500-117.500Q23.200-120.400 19.600-121.500Q16-122.600 8.600-122.600Q8.200-122.600 8.200-123.800Q8.200-125 8.600-125L89-125Q90.800-125 90.800-123.200L91.200-98.600Q91.200-98 90.100-97.900Q89-97.800 89-98.400Q88.400-109.200 82.500-115Q76.600-120.800 67.200-120.800L55-120.800Q48.200-120.800 44.700-119.800Q41.200-118.800 39.900-116Q38.600-113.200 38.600-107.800L38.600-17Q38.600-11.800 39.900-9Q41.200-6.200 44.500-5.200Q47.800-4.200 54.400-4.200L70.400-4.200Q80-4.200 86.500-11.100Q93-18 95-29.800Q95-30.400 96.200-30.200Q97.400-30 97.400-29.400Q96.600-24.200 96.100-16.800Q95.600-9.400 95.600-3Q95.600 0 92.400 0M81.200-46.600Q81.200-55.400 76.900-59.200Q72.600-63 62.600-63L32.600-63L32.600-67.200L63.200-67.200Q72.800-67.200 76.900-70.500Q81-73.800 81-81.200Q81-81.600 82.200-81.600Q83.400-81.600 83.400-81.200Q83.400-75.200 83.300-71.900Q83.200-68.600 83.200-65Q83.200-60.400 83.400-56Q83.600-51.600 83.600-46.600Q83.600-46.200 82.400-46.200Q81.200-46.200 81.200-46.600"/>
  <path fill="#B84A1E" d="M99.400 55Q92.400 55 89.300 52.300Q86.200 49.600 86.800 46.400Q87 43.800 89 42Q91 40.200 94 40.200Q97.200 40.200 98.600 41.900Q100 43.600 100.600 45.800Q101.200 48 102.100 49.700Q103 51.400 105.400 51.400Q107.800 51.400 109.500 48.300Q111.200 45.200 113 36.200Q114.800 27.200 117.400 9.400L127.600-61.200Q128.400-66.200 127.900-68.500Q127.400-70.800 124.800-71.500Q122.200-72.200 116.600-72.200Q115.800-72.200 116-73.400Q116.200-74.600 116.800-74.600Q124-74.600 127-76.600Q130-78.600 130.800-83.600Q133.800-101.800 137.300-113.700Q140.800-125.600 145.400-132.500Q150-139.400 156.200-142.300Q162.400-145.200 171.200-145.200Q178.400-145.200 182.200-142.100Q186-139 185.600-134.800Q185-131.800 183-130.400Q181-129 178.600-129Q175.400-129 174.100-131Q172.800-133 171.900-135.600Q171-138.200 169.600-140.200Q168.200-142.200 165-142.200Q157.200-142.200 151.600-128.500Q146-114.800 142-87.800L128.600 4.200Q125.800 23.200 122.200 34.400Q118.600 45.600 113.100 50.300Q107.600 55 99.400 55M155.400-68.400Q153.200-68.800 149.700-69.300Q146.200-69.800 142.100-70.200Q138-70.600 133.600-70.600L134-75.200Q138.400-75.200 144.100-75.600Q149.800-76 154.600-76.300Q159.400-76.600 160.800-76.600Q161.800-76.600 162.100-76.100Q162.400-75.600 162.200-74.800Q161.800-73.200 159.700-70.700Q157.600-68.200 155.400-68.400"/>
  </g>
</svg>
