<svg xmlns="http://www.w3.org/2000/svg" viewBox="2.20 -151.20 469.00 212.20" role="img" aria-label="Efesto">
  <title>Efesto</title>
  <path fill="currentColor" d="M92.400 0L8.600 0Q8.200 0 8.200-1.200Q8.200-2.400 8.600-2.400Q16-2.400 19.600-3.400Q23.200-4.400 24.500-7.400Q25.800-10.400 25.800-16.200L25.800-108.800Q25.800-114.600 24.500-117.500Q23.200-120.400 19.600-121.500Q16-122.600 8.600-122.600Q8.200-122.600 8.200-123.800Q8.200-125 8.600-125L89-125Q90.800-125 90.800-123.200L91.200-98.600Q91.200-98 90.100-97.900Q89-97.800 89-98.400Q88.400-109.200 82.500-115Q76.600-120.800 67.200-120.800L55-120.800Q48.200-120.800 44.700-119.800Q41.200-118.800 39.900-116Q38.600-113.200 38.600-107.800L38.600-17Q38.600-11.800 39.900-9Q41.200-6.200 44.500-5.200Q47.800-4.200 54.400-4.200L70.400-4.200Q80-4.200 86.500-11.100Q93-18 95-29.800Q95-30.400 96.200-30.200Q97.400-30 97.400-29.400Q96.600-24.200 96.100-16.800Q95.600-9.400 95.600-3Q95.600 0 92.400 0M81.200-46.600Q81.200-55.400 76.900-59.200Q72.600-63 62.600-63L32.600-63L32.600-67.200L63.200-67.200Q72.800-67.200 76.900-70.500Q81-73.800 81-81.200Q81-81.600 82.200-81.600Q83.400-81.600 83.400-81.200Q83.400-75.200 83.300-71.900Q83.200-68.600 83.200-65Q83.200-60.400 83.400-56Q83.600-51.600 83.600-46.600Q83.600-46.200 82.400-46.200Q81.200-46.200 81.200-46.600"/>
  <path fill="#B84A1E" d="M99.400 55Q92.400 55 89.300 52.300Q86.200 49.600 86.800 46.400Q87 43.800 89 42Q91 40.200 94 40.200Q97.200 40.200 98.600 41.900Q100 43.600 100.600 45.800Q101.200 48 102.100 49.700Q103 51.400 105.400 51.400Q107.800 51.400 109.500 48.300Q111.200 45.200 113 36.200Q114.800 27.200 117.400 9.400L127.600-61.200Q128.400-66.200 127.900-68.500Q127.400-70.800 124.800-71.500Q122.200-72.200 116.600-72.200Q115.800-72.200 116-73.400Q116.200-74.600 116.800-74.600Q124-74.600 127-76.600Q130-78.600 130.800-83.600Q133.800-101.800 137.300-113.700Q140.800-125.600 145.400-132.500Q150-139.400 156.200-142.300Q162.400-145.200 171.200-145.200Q178.400-145.200 182.200-142.100Q186-139 185.600-134.800Q185-131.800 183-130.400Q181-129 178.600-129Q175.400-129 174.100-131Q172.800-133 171.900-135.600Q171-138.200 169.600-140.200Q168.200-142.200 165-142.200Q157.200-142.200 151.600-128.500Q146-114.800 142-87.800L128.600 4.200Q125.800 23.200 122.200 34.400Q118.600 45.600 113.100 50.300Q107.600 55 99.400 55M155.400-68.400Q153.200-68.800 149.700-69.300Q146.200-69.800 142.100-70.200Q138-70.600 133.600-70.600L134-75.200Q138.400-75.200 144.100-75.600Q149.800-76 154.600-76.300Q159.400-76.600 160.800-76.600Q161.800-76.600 162.100-76.100Q162.400-75.600 162.200-74.800Q161.800-73.200 159.700-70.700Q157.600-68.200 155.400-68.400"/>
  <path fill="currentColor" d="M203.600 2.400Q191.600 2.400 183.400-3.100Q175.200-8.600 171.100-17.400Q167-26.200 167-36Q167-48.200 172.600-57.900Q178.200-67.600 187.900-73.300Q197.600-79 209.200-79Q220.600-79 226.500-73Q232.400-67 232.400-56.200Q232.400-53.600 231.900-52.300Q231.400-51 230-51L218.800-51Q219.600-63.200 215.200-69.100Q210.800-75 202.600-75Q192-75 186.100-66.600Q180.200-58.200 180.200-43.600Q180.200-32.200 183.800-23.400Q187.400-14.600 194.400-9.600Q201.400-4.600 211.400-4.600Q218.200-4.600 222.600-6.600Q227-8.600 231.400-11.200Q231.800-11.600 232.500-10.700Q233.200-9.800 232.800-9.200Q225.800-3 218.500-0.300Q211.200 2.400 203.600 2.400M221.800-51L176.600-50.800L176.400-53.400L221.800-54.200"/>
  <path fill="currentColor" d="M261.400-65Q261.400-59.800 264.100-56.200Q266.800-52.600 270.900-50.100Q275-47.600 279.600-45.200Q284.800-42.600 289.400-39.700Q294-36.800 297-32.700Q300-28.600 300-22Q300-15.600 296.800-10.100Q293.600-4.600 287.300-1.200Q281 2.200 271.800 2.200Q266.800 2.200 262.200 0.900Q257.600-0.400 252.600-3.800Q252.200-4.200 251.800-4.800Q251.400-5.400 251.400-6.200L251-21.800Q251-22.400 252.100-22.500Q253.200-22.600 253.400-22Q255.800-15.200 259.400-10.700Q263-6.200 267.600-3.900Q272.200-1.600 277.400-1.600Q283.800-1.600 287.300-4.800Q290.800-8 290.600-14.200Q290.400-20 287.600-23.600Q284.800-27.200 280.700-29.700Q276.600-32.200 272.200-34.400Q267.200-36.800 262.700-39.500Q258.200-42.200 255.300-46.400Q252.400-50.600 252.400-57.400Q252.400-65.200 256.400-70.100Q260.400-75 266.600-77.300Q272.800-79.600 279.600-79.600Q283.400-79.600 287-79Q290.600-78.400 294.200-76.600Q296-76 296-74.400Q296-71.200 295.800-67.700Q295.600-64.200 295.600-59.800Q295.600-59.400 294.400-59.400Q293.200-59.400 293.200-59.800Q293.200-64.400 290-68Q286.800-71.600 282-73.700Q277.200-75.800 272.400-75.800Q267.600-75.800 264.500-73.200Q261.400-70.600 261.400-65"/>
  <path fill="currentColor" d="M346.600 2.400Q341.800 2.400 337.400 0.900Q333-0.600 330.200-4.200Q327.400-7.800 327.400-14L327.400-61Q327.400-65.800 326.800-68.200Q326.200-70.600 324-71.300Q321.800-72 317.200-72Q316.400-72 316.400-73.300Q316.400-74.600 317.200-74.600Q325.200-74.800 330.300-79Q335.400-83.200 336-89.800Q336-90.400 337.500-90.400Q339-90.400 339-89.800L339-20.800Q339-12.600 343.100-8.600Q347.200-4.600 354.800-4.600Q360-4.600 364.100-6.300Q368.200-8 370.800-10.200Q371.600-10.600 372.300-9.700Q373-8.800 372.200-8.200Q364.800-2.600 358.900-0.100Q353 2.400 346.600 2.400M366-67.400Q358.200-69.400 351-70Q343.800-70.600 335.600-70.600L335.600-75Q343.600-75 351-75.600Q358.400-76.200 366.800-77Q367.200-77 367.700-75.600Q368.200-74.200 368.200-72.200Q368.200-70.800 367.500-69Q366.800-67.200 366-67.400"/>
  <path fill="currentColor" d="M422.800 2.600Q411 2.600 402.200-3.200Q393.400-9 388.600-18.700Q383.800-28.400 383.800-39.600Q383.800-50 387.600-57.600Q391.400-65.200 397.800-70.100Q404.200-75 411.700-77.400Q419.200-79.800 426.400-79.800Q438.600-79.800 447.300-73.800Q456-67.800 460.600-58.400Q465.200-49 465.200-38.600Q465.200-25.800 459.400-16.600Q453.600-7.400 444-2.400Q434.400 2.600 422.800 2.600M428.600-1.200Q439.200-1.200 445.400-8.700Q451.600-16.200 451.600-33Q451.600-45.600 447.500-55.300Q443.400-65 436.200-70.500Q429-76 419.800-76Q409.200-76 403.200-68.200Q397.200-60.400 397.200-45.800Q397.200-33.600 401.200-23.400Q405.200-13.200 412.300-7.200Q419.400-1.200 428.600-1.200"/>
</svg>
